<svg xmlns="http://www.w3.org/2000/svg" viewBox="0 0 400 260" role="img" aria-label="Illustration of an apartment building"><rect width="400" height="260" fill="#f3e3d3"/><circle cx="130" cy="55" r="22" fill="#f8f4ee" opacity="0.8"/><rect x="0" y="238" width="400" height="22" fill="#9a5b2e" opacity="0.25"/><rect x="105" y="22" width="190" height="218" rx="4" fill="#9a5b2e"/><rect x="121" y="36" width="29.5" height="12" rx="2" fill="#f8f4ee" opacity="0.95"/><rect x="160.5" y="36" width="29.5" height="12" rx="2" fill="#f8f4ee" opacity="0.55"/><rect x="200" y="36" width="29.5" height="12" rx="2" fill="#f8f4ee" opacity="0.95"/><rect x="239.5" y="36" width="29.5" height="12" rx="2" fill="#f8f4ee" opacity="0.95"/><rect x="121" y="58" width="29.5" height="12" rx="2" fill="#f8f4ee" opacity="0.55"/><rect x="160.5" y="58" width="29.5" height="12" rx="2" fill="#f8f4ee" opacity="0.95"/><rect x="200" y="58" width="29.5" height="12" rx="2" fill="#f8f4ee" opacity="0.95"/><rect x="239.5" y="58" width="29.5" height="12" rx="2" fill="#f8f4ee" opacity="0.55"/><rect x="121" y="80" width="29.5" height="12" rx="2" fill="#f8f4ee" opacity="0.95"/><rect x="160.5" y="80" width="29.5" height="12" rx="2" fill="#f8f4ee" opacity="0.95"/><rect x="200" y="80" width="29.5" height="12" rx="2" fill="#f8f4ee" opacity="0.55"/><rect x="239.5" y="80" width="29.5" height="12" rx="2" fill="#f8f4ee" opacity="0.95"/><rect x="121" y="102" width="29.5" height="12" rx="2" fill="#f8f4ee" opacity="0.95"/><rect x="160.5" y="102" width="29.5" height="12" rx="2" fill="#f8f4ee" opacity="0.55"/><rect x="200" y="102" width="29.5" height="12" rx="2" fill="#f8f4ee" opacity="0.95"/><rect x="239.5" y="102" width="29.5" height="12" rx="2" fill="#f8f4ee" opacity="0.95"/><rect x="121" y="124" width="29.5" height="12" rx="2" fill="#f8f4ee" opacity="0.55"/><rect x="160.5" y="124" width="29.5" height="12" rx="2" fill="#f8f4ee" opacity="0.95"/><rect x="200" y="124" width="29.5" height="12" rx="2" fill="#f8f4ee" opacity="0.95"/><rect x="239.5" y="124" width="29.5" height="12" rx="2" fill="#f8f4ee" opacity="0.55"/><rect x="121" y="146" width="29.5" height="12" rx="2" fill="#f8f4ee" opacity="0.95"/><rect x="160.5" y="146" width="29.5" height="12" rx="2" fill="#f8f4ee" opacity="0.95"/><rect x="200" y="146" width="29.5" height="12" rx="2" fill="#f8f4ee" opacity="0.55"/><rect x="239.5" y="146" width="29.5" height="12" rx="2" fill="#f8f4ee" opacity="0.95"/><rect x="121" y="168" width="29.5" height="12" rx="2" fill="#f8f4ee" opacity="0.95"/><rect x="160.5" y="168" width="29.5" height="12" rx="2" fill="#f8f4ee" opacity="0.55"/><rect x="200" y="168" width="29.5" height="12" rx="2" fill="#f8f4ee" opacity="0.95"/><rect x="239.5" y="168" width="29.5" height="12" rx="2" fill="#f8f4ee" opacity="0.95"/><rect x="121" y="190" width="29.5" height="12" rx="2" fill="#f8f4ee" opacity="0.55"/><rect x="160.5" y="190" width="29.5" height="12" rx="2" fill="#f8f4ee" opacity="0.95"/><rect x="200" y="190" width="29.5" height="12" rx="2" fill="#f8f4ee" opacity="0.95"/><rect x="239.5" y="190" width="29.5" height="12" rx="2" fill="#f8f4ee" opacity="0.55"/><rect x="121" y="212" width="29.5" height="12" rx="2" fill="#f8f4ee" opacity="0.95"/><rect x="160.5" y="212" width="29.5" height="12" rx="2" fill="#f8f4ee" opacity="0.95"/><rect x="200" y="212" width="29.5" height="12" rx="2" fill="#f8f4ee" opacity="0.55"/><rect x="239.5" y="212" width="29.5" height="12" rx="2" fill="#f8f4ee" opacity="0.95"/><rect x="188" y="218" width="24" height="22" fill="#f8f4ee"/><rect x="45" y="170" width="50" height="70" rx="3" fill="#9a5b2e" opacity="0.45"/><rect x="305" y="145" width="55" height="95" rx="3" fill="#9a5b2e" opacity="0.35"/></svg>